<svg width="40" height="33" viewBox="0 0 40 33" fill="none" xmlns="http://www.w3.org/2000/svg">
<rect x="1" y="21" width="34" height="6" fill="#3B1EFF"/>
<path d="M2.96875 27.25H33.1562M2.96875 27.25C2.44661 27.25 1.94585 27.0426 1.57663 26.6734C1.20742 26.3042 1 25.8034 1 25.2813M2.96875 27.25H16.0938C17.1805 27.25 18.0625 26.368 18.0625 25.2813M2.96875 27.25C1.882 27.25 1 26.368 1 25.2813M33.1562 27.25C34.243 27.25 35.125 26.368 35.125 25.2813M33.1562 27.25H20.0312C19.5091 27.25 19.0083 27.0426 18.6391 26.6734C18.2699 26.3042 18.0625 25.8034 18.0625 25.2813M1 25.2813V2.96875M1 25.2813V22.6563C1 21.5695 1.882 20.6875 2.96875 20.6875M18.0625 25.2813V22.6563M1 2.96875C1 1.882 1.882 1 2.96875 1M1 2.96875V5.59375C1 6.6805 1.882 7.5625 2.96875 7.5625M2.96875 20.6875C1.882 20.6875 1 19.8055 1 18.7188V16.0938C1 15.007 1.882 14.125 2.96875 14.125M2.96875 20.6875H16.0938M2.96875 20.6875H33.1562M35.125 25.2813V2.96875M35.125 25.2813V22.6563C35.125 21.5695 34.243 20.6875 33.1562 20.6875M35.125 2.96875C35.125 1.882 34.243 1 33.1562 1M35.125 2.96875V5.59375C35.125 6.6805 34.243 7.5625 33.1562 7.5625M35.125 2.96875C35.125 2.44661 34.9176 1.94585 34.5484 1.57663C34.1792 1.20742 33.6784 1 33.1562 1M33.1562 20.6875C34.243 20.6875 35.125 19.8055 35.125 18.7188V16.0938C35.125 15.007 34.243 14.125 33.1562 14.125M33.1562 20.6875H20.0312M33.1562 1H2.96875M33.1562 1L20.0313 1C18.9445 1 18.0625 1.882 18.0625 2.96875M2.96875 1L16.0938 1C16.6159 1 17.1167 1.20742 17.4859 1.57663C17.8551 1.94584 18.0625 2.44661 18.0625 2.96875M33.1562 7.5625H2.96875M33.1562 7.5625H20.0312M33.1562 7.5625C34.243 7.5625 35.125 8.4445 35.125 9.53125V12.1563C35.125 13.243 34.243 14.125 33.1562 14.125M2.96875 7.5625H16.0938M2.96875 7.5625C1.882 7.5625 1 8.4445 1 9.53125V12.1563C1 13.243 1.882 14.125 2.96875 14.125M16.0938 7.5625C17.1805 7.5625 18.0625 8.4445 18.0625 9.53125M16.0938 7.5625C17.1805 7.5625 18.0625 6.6805 18.0625 5.59375M18.0625 9.53125C18.0625 8.4445 18.9445 7.5625 20.0312 7.5625M18.0625 9.53125V12.1563M2.96875 14.125H16.0938M20.0312 7.5625C18.9445 7.5625 18.0625 6.6805 18.0625 5.59375M33.1562 14.125H20.0312M16.0938 14.125C17.1805 14.125 18.0625 13.243 18.0625 12.1563M16.0938 14.125C17.1805 14.125 18.0625 15.007 18.0625 16.0938M18.0625 12.1563C18.0625 13.243 18.9445 14.125 20.0312 14.125M20.0312 14.125C18.9445 14.125 18.0625 15.007 18.0625 16.0938M18.0625 16.0938V18.7188M16.0938 20.6875C17.1805 20.6875 18.0625 19.8055 18.0625 18.7188M16.0938 20.6875C17.1805 20.6875 18.0625 21.5695 18.0625 22.6563M18.0625 18.7188C18.0625 19.8055 18.9445 20.6875 20.0312 20.6875M20.0312 20.6875C18.9445 20.6875 18.0625 21.5695 18.0625 22.6563M18.0625 2.96875V5.59375" stroke="black" stroke-width="1.5" stroke-linecap="round" stroke-linejoin="round"/>
<circle cx="34.5" cy="27.5" r="5.5" fill="#D9D9D9"/>
<path d="M34.5 24.75V30.25M37.25 27.5H31.75" stroke="black" stroke-width="1.5" stroke-linecap="round" stroke-linejoin="round"/>
</svg>
