<svg width="36" height="28" viewBox="0 0 36 28" fill="none" xmlns="http://www.w3.org/2000/svg">
<rect x="1" y="1" width="34" height="26" fill="#D9D9D9"/>
<path d="M2.96875 27.25H33.1562M2.96875 27.25C2.44661 27.25 1.94585 27.0426 1.57663 26.6734C1.20742 26.3042 1 25.8034 1 25.2813M2.96875 27.25H16.0938M2.96875 27.25C1.882 27.25 1 26.368 1 25.2813M33.1562 27.25C34.243 27.25 35.125 26.368 35.125 25.2813M33.1562 27.25H20.0312M1 25.2813V2.96875M1 25.2813V22.6563M1 2.96875C1 1.882 1.882 1 2.96875 1M1 2.96875V5.59375M35.125 25.2813V2.96875M35.125 25.2813V22.6563M35.125 2.96875C35.125 1.882 34.243 1 33.1562 1M35.125 2.96875V5.59375M35.125 2.96875C35.125 2.44661 34.9176 1.94585 34.5484 1.57663C34.1792 1.20742 33.6784 1 33.1562 1M33.1562 1H2.96875M33.1562 1L20.0313 1M2.96875 1L16.0938 1M1 9.53125V12.1563M35.125 9.53125V12.1563M1 16.0938V18.7188M35.125 16.0938V18.7188" stroke="black" stroke-width="1.5" stroke-linecap="round" stroke-linejoin="round"/>
<g clip-path="url(#clip0_27_97)">
<path d="M21.875 14.7371C21.9441 14.6379 21.9923 14.521 21.9992 14.3794C22.0324 13.6682 21.202 12.3374 19.9327 11.0679C18.6765 9.81176 17.3911 9 16.6515 9C16.4059 9.00342 16.2594 9.10059 16.1803 9.17993C16.1793 9.18096 15.5128 10.0053 15.5128 10.0053C14.2678 10.0607 12.5017 10.9409 12.5017 12.25C12.5017 12.5986 12.6262 12.9087 12.8723 13.1714C12.9406 13.2446 13.0213 13.3126 13.1084 13.3777C13.1123 13.3809 13.3181 13.5152 13.3218 13.5171C13.9714 13.8932 14.8445 14 15.2513 14C15.9377 14 16.4366 13.9815 17.0899 13.7337C17.2173 13.6858 17.3652 13.7544 17.4116 13.8789C17.4355 13.9414 17.4335 14.0093 17.4062 14.0701C17.3789 14.1311 17.3291 14.1777 17.2666 14.2014C16.5358 14.4785 15.9704 14.5 15.2513 14.5C14.5322 14.5 13.5079 14.3069 12.7893 13.7649C12.6824 13.6838 12.5296 13.7022 12.4446 13.8076L12.1595 14.1628C12.0922 14.2305 12.0097 14.3533 12.0009 14.5532C11.9726 15.1567 12.6419 16.2336 13.7047 17.2966C14.7406 18.3327 15.8025 19.0019 16.4093 19.0019C16.4108 19.0019 16.4225 19.0019 16.4244 19.0019C16.6392 18.9978 16.7686 18.9121 16.8189 18.8594L21.7405 14.8869C21.7419 14.886 21.8628 14.7674 21.875 14.7371ZM13.2356 12.8275C13.0784 12.6586 13.0017 12.4697 13.0017 12.25C13.0017 11.4237 14.0956 10.7681 15.0605 10.566L13.2356 12.8275ZM18.7756 12.2251C17.9208 11.3704 17.4345 10.6555 17.1924 10.1941C17.6747 10.4458 18.4036 10.9529 19.2257 11.7749C20.0762 12.6257 20.5614 13.3428 20.8026 13.8052C20.3227 13.5535 19.5968 13.0466 18.7756 12.2251Z" fill="black"/>
<path d="M21.9556 16.6079C21.8628 16.4727 21.6372 16.4727 21.5444 16.6079C21.3701 16.8604 20.5 18.1501 20.5 18.75C20.5 19.4392 21.0605 20 21.75 20C22.4394 20 23 19.4392 23 18.75C23 18.1501 22.1299 16.8604 21.9556 16.6079Z" fill="black"/>
</g>
<defs>
<clipPath id="clip0_27_97">
<rect width="11" height="11" fill="white" transform="translate(12 9)"/>
</clipPath>
</defs>
</svg>
