<svg width="36" height="28" viewBox="0 0 36 28" fill="none" xmlns="http://www.w3.org/2000/svg">
<path d="M2.96875 27.25H33.1562M2.96875 27.25C2.44661 27.25 1.94585 27.0426 1.57663 26.6734C1.20742 26.3042 1 25.8034 1 25.2813M2.96875 27.25H16.0938M2.96875 27.25C1.882 27.25 1 26.368 1 25.2813M33.1562 27.25C34.243 27.25 35.125 26.368 35.125 25.2813M33.1562 27.25H20.0312M1 25.2813V2.96875M1 25.2813V22.6563M1 2.96875C1 1.882 1.882 1 2.96875 1M1 2.96875V5.59375M35.125 25.2813V2.96875M35.125 25.2813V22.6563M35.125 2.96875C35.125 1.882 34.243 1 33.1562 1M35.125 2.96875V5.59375M35.125 2.96875C35.125 2.44661 34.9176 1.94585 34.5484 1.57663C34.1792 1.20742 33.6784 1 33.1562 1M33.1562 1H2.96875M33.1562 1L20.0313 1M2.96875 1L16.0938 1M1 9.53125V12.1563M35.125 9.53125V12.1563M1 16.0938V18.7188M35.125 16.0938V18.7188" stroke="black" stroke-width="1.5" stroke-linecap="round" stroke-linejoin="round"/>
<path d="M7.352 19.236C6.864 19.236 6.464 19.136 6.152 18.936C5.848 18.736 5.624 18.464 5.48 18.12C5.336 17.784 5.264 17.408 5.264 16.992C5.264 16.352 5.42 15.688 5.732 15C5.964 14.504 6.272 14.048 6.656 13.632C7.04 13.208 7.472 12.872 7.952 12.624C8.432 12.368 8.936 12.24 9.464 12.24C9.872 12.24 10.196 12.296 10.436 12.408C10.676 12.512 10.848 12.652 10.952 12.828C11.064 12.996 11.12 13.176 11.12 13.368C11.12 13.632 11.04 13.88 10.88 14.112C10.72 14.344 10.524 14.492 10.292 14.556C10.284 14.564 10.272 14.568 10.256 14.568C10.248 14.576 10.232 14.58 10.208 14.58C10.224 14.58 10.24 14.576 10.256 14.568C10.264 14.568 10.268 14.568 10.268 14.568L10.292 14.556C10.404 14.508 10.512 14.384 10.616 14.184C10.728 13.984 10.784 13.768 10.784 13.536C10.784 13.28 10.688 13.048 10.496 12.84C10.304 12.632 9.948 12.528 9.428 12.528C8.964 12.528 8.512 12.652 8.072 12.9C7.64 13.148 7.248 13.476 6.896 13.884C6.552 14.292 6.272 14.732 6.056 15.204C5.784 15.82 5.648 16.42 5.648 17.004C5.648 17.532 5.784 17.98 6.056 18.348C6.328 18.716 6.76 18.9 7.352 18.9C7.696 18.9 8.052 18.804 8.42 18.612C8.796 18.42 9.172 18.172 9.548 17.868C9.932 17.556 10.304 17.216 10.664 16.848C11.032 16.48 11.376 16.124 11.696 15.78C11.392 15.812 11.1 15.852 10.82 15.9C10.548 15.94 10.284 15.992 10.028 16.056H9.98C9.884 16.056 9.836 16.008 9.836 15.912C9.836 15.872 9.852 15.832 9.884 15.792C9.916 15.744 9.96 15.716 10.016 15.708C10.6 15.612 11.236 15.532 11.924 15.468C13.236 13.916 14.284 12.7 15.068 11.82C15.852 10.94 16.476 10.4 16.94 10.2C17.124 10.12 17.3 10.08 17.468 10.08C17.644 10.08 17.732 10.136 17.732 10.248C17.732 10.36 17.624 10.524 17.408 10.74C17.12 11.036 16.824 11.432 16.52 11.928C16.224 12.424 15.944 12.968 15.68 13.56C15.424 14.144 15.212 14.736 15.044 15.336C15.156 15.336 15.248 15.336 15.32 15.336C15.392 15.328 15.456 15.328 15.512 15.336C15.592 15.344 15.652 15.368 15.692 15.408C15.732 15.448 15.752 15.488 15.752 15.528C15.752 15.624 15.692 15.672 15.572 15.672C15.492 15.672 15.4 15.672 15.296 15.672C15.2 15.664 15.096 15.66 14.984 15.66C14.848 16.204 14.78 16.704 14.78 17.16C14.78 17.272 14.784 17.38 14.792 17.484C14.8 17.588 14.812 17.688 14.828 17.784C14.868 17.976 14.916 18.144 14.972 18.288C15.036 18.432 15.12 18.504 15.224 18.504C15.344 18.504 15.496 18.388 15.68 18.156C15.744 18.084 15.804 18.048 15.86 18.048C15.9 18.048 15.932 18.064 15.956 18.096C15.98 18.136 15.976 18.188 15.944 18.252C15.768 18.612 15.532 18.792 15.236 18.792C15.076 18.792 14.92 18.72 14.768 18.576C14.624 18.432 14.52 18.2 14.456 17.88C14.408 17.648 14.384 17.396 14.384 17.124C14.384 16.9 14.396 16.668 14.42 16.428C14.452 16.18 14.496 15.924 14.552 15.66C14.224 15.66 13.852 15.664 13.436 15.672C13.028 15.672 12.616 15.692 12.2 15.732C12.192 15.748 12.176 15.768 12.152 15.792C12.128 15.808 12.108 15.824 12.092 15.84C11.772 16.2 11.416 16.58 11.024 16.98C10.632 17.372 10.224 17.74 9.8 18.084C9.384 18.428 8.964 18.704 8.54 18.912C8.124 19.128 7.728 19.236 7.352 19.236ZM12.476 15.408C12.868 15.384 13.252 15.368 13.628 15.36C14.004 15.344 14.34 15.332 14.636 15.324C14.78 14.74 14.976 14.164 15.224 13.596C15.472 13.02 15.74 12.488 16.028 12C16.316 11.512 16.588 11.112 16.844 10.8C16.868 10.768 16.904 10.72 16.952 10.656C17 10.584 17.044 10.52 17.084 10.464C17.132 10.4 17.148 10.372 17.132 10.38C16.7 10.564 16.112 11.092 15.368 11.964C14.632 12.828 13.668 13.976 12.476 15.408ZM17.2706 18.132C17.1506 18.132 17.0506 18.092 16.9706 18.012C16.8986 17.932 16.8626 17.832 16.8626 17.712C16.8626 17.592 16.8986 17.492 16.9706 17.412C17.0506 17.332 17.1506 17.292 17.2706 17.292C17.3906 17.292 17.4906 17.332 17.5706 17.412C17.6506 17.492 17.6906 17.592 17.6906 17.712C17.6906 17.832 17.6506 17.932 17.5706 18.012C17.4906 18.092 17.3906 18.132 17.2706 18.132ZM20.4401 19.32C20.2561 19.32 20.0441 19.3 19.8041 19.26C19.5721 19.228 19.3681 19.156 19.1921 19.044C19.0241 18.94 18.9401 18.784 18.9401 18.576C18.9401 18.392 19.0001 18.204 19.1201 18.012C19.2481 17.828 19.4041 17.652 19.5881 17.484C19.7801 17.316 19.9801 17.168 20.1881 17.04C20.4041 16.904 20.5961 16.796 20.7641 16.716C20.9161 16.356 21.1121 15.964 21.3521 15.54C21.6001 15.108 21.8761 14.68 22.1801 14.256C22.4921 13.824 22.8161 13.424 23.1521 13.056C23.4961 12.68 23.8361 12.36 24.1721 12.096C24.2441 12.04 24.3601 11.96 24.5201 11.856C24.6801 11.752 24.8121 11.7 24.9161 11.7C25.0441 11.7 25.1081 11.756 25.1081 11.868C25.1081 11.908 25.0961 11.94 25.0721 11.964C25.0481 11.988 25.0161 12.008 24.9761 12.024C24.8721 12.072 24.7761 12.124 24.6881 12.18C24.6001 12.228 24.5121 12.284 24.4241 12.348C24.1121 12.572 23.8041 12.856 23.5001 13.2C23.1961 13.536 22.9041 13.896 22.6241 14.28C22.3521 14.664 22.1001 15.048 21.8681 15.432C21.6441 15.816 21.4561 16.168 21.3041 16.488C21.6321 16.376 21.9921 16.292 22.3841 16.236C22.7761 16.18 23.1481 16.152 23.5001 16.152C23.5961 16.152 23.7241 16.16 23.8841 16.176C24.0441 16.184 24.2041 16.204 24.3641 16.236C24.5321 16.268 24.6721 16.32 24.7841 16.392C24.8961 16.464 24.9521 16.56 24.9521 16.68C24.9521 16.8 24.8881 16.86 24.7601 16.86C24.7041 16.86 24.6641 16.848 24.6401 16.824C24.6161 16.8 24.5921 16.772 24.5681 16.74C24.4881 16.628 24.3441 16.56 24.1361 16.536C23.9361 16.512 23.7561 16.5 23.5961 16.5C23.1641 16.5 22.7361 16.532 22.3121 16.596C21.8961 16.66 21.4961 16.776 21.1121 16.944C21.0561 17.088 21.0081 17.24 20.9681 17.4C20.9281 17.56 20.9081 17.716 20.9081 17.868C20.9081 18.076 20.9361 18.208 20.9921 18.264C21.0561 18.32 21.1161 18.352 21.1721 18.36C21.2281 18.376 21.2561 18.428 21.2561 18.516C21.2561 18.564 21.2401 18.608 21.2081 18.648C21.1761 18.688 21.1281 18.708 21.0641 18.708C20.9361 18.708 20.8281 18.664 20.7401 18.576C20.6601 18.488 20.6001 18.38 20.5601 18.252C20.5281 18.132 20.5121 18.028 20.5121 17.94C20.5121 17.812 20.5241 17.688 20.5481 17.568C20.5721 17.44 20.6001 17.316 20.6321 17.196C20.4961 17.268 20.3241 17.376 20.1161 17.52C19.9161 17.664 19.7401 17.824 19.5881 18C19.4361 18.168 19.3601 18.336 19.3601 18.504C19.3601 18.64 19.4241 18.74 19.5521 18.804C19.6881 18.876 19.8401 18.92 20.0081 18.936C20.1761 18.96 20.3161 18.972 20.4281 18.972C20.7561 18.972 21.1241 18.932 21.5321 18.852C21.9481 18.78 22.3761 18.672 22.8161 18.528C23.2641 18.392 23.6961 18.224 24.1121 18.024C24.5361 17.824 24.9161 17.6 25.2521 17.352C25.5881 17.096 25.8561 16.82 26.0561 16.524C26.2561 16.228 26.3561 15.916 26.3561 15.588C26.3561 15.196 26.2041 14.864 25.9001 14.592C25.6041 14.312 25.2521 14.112 24.8441 13.992C24.7561 13.968 24.6641 13.952 24.5681 13.944C24.4801 13.928 24.3921 13.912 24.3041 13.896C24.2481 13.88 24.2001 13.86 24.1601 13.836C24.1281 13.812 24.1121 13.772 24.1121 13.716C24.1121 13.628 24.1721 13.572 24.2921 13.548C24.4041 13.524 24.5121 13.508 24.6161 13.5C24.7281 13.492 24.8361 13.476 24.9401 13.452C25.2121 13.396 25.4961 13.32 25.7921 13.224C26.0881 13.12 26.3681 12.996 26.6321 12.852C26.8961 12.7 27.1121 12.524 27.2801 12.324C27.3681 12.212 27.4361 12.096 27.4841 11.976C27.5401 11.856 27.5681 11.732 27.5681 11.604C27.5681 11.364 27.4921 11.156 27.3401 10.98C27.1881 10.804 26.9921 10.66 26.7521 10.548C26.5201 10.428 26.2721 10.336 26.0081 10.272C25.7441 10.2 25.5001 10.152 25.2761 10.128C25.0041 10.104 24.7241 10.092 24.4361 10.092C23.8121 10.092 23.1961 10.172 22.5881 10.332C21.9881 10.484 21.4401 10.728 20.9441 11.064C20.6881 11.232 20.4321 11.44 20.1761 11.688C19.9281 11.936 19.7201 12.204 19.5521 12.492C19.3921 12.772 19.3121 13.064 19.3121 13.368C19.3121 13.512 19.3401 13.62 19.3961 13.692C19.4521 13.756 19.5041 13.808 19.5521 13.848C19.6081 13.88 19.6361 13.924 19.6361 13.98C19.6361 14.028 19.6161 14.072 19.5761 14.112C19.5361 14.152 19.4881 14.172 19.4321 14.172C19.3201 14.172 19.2241 14.124 19.1441 14.028C19.0721 13.924 19.0161 13.808 18.9761 13.68C18.9361 13.552 18.9161 13.452 18.9161 13.38C18.9161 13.044 19.0041 12.716 19.1801 12.396C19.3641 12.076 19.5921 11.78 19.8641 11.508C20.1361 11.228 20.4161 10.992 20.7041 10.8C21.2481 10.44 21.8441 10.176 22.4921 10.008C23.1401 9.84 23.8041 9.756 24.4841 9.756C24.7721 9.756 25.0521 9.768 25.3241 9.792C25.6041 9.816 25.8961 9.872 26.2001 9.96C26.5121 10.04 26.8001 10.156 27.0641 10.308C27.3281 10.452 27.5441 10.632 27.7121 10.848C27.8801 11.056 27.9641 11.304 27.9641 11.592C27.9641 11.896 27.8761 12.168 27.7001 12.408C27.5241 12.64 27.2961 12.844 27.0161 13.02C26.7441 13.188 26.4481 13.332 26.1281 13.452C25.8161 13.572 25.5161 13.668 25.2281 13.74C25.6521 13.916 26.0121 14.16 26.3081 14.472C26.6041 14.784 26.7521 15.152 26.7521 15.576C26.7521 15.944 26.6481 16.292 26.4401 16.62C26.2321 16.948 25.9521 17.252 25.6001 17.532C25.2561 17.804 24.8641 18.052 24.4241 18.276C23.9841 18.5 23.5241 18.688 23.0441 18.84C22.5721 18.992 22.1121 19.108 21.6641 19.188C21.2161 19.276 20.8081 19.32 20.4401 19.32ZM27.794 18.132C27.674 18.132 27.574 18.092 27.494 18.012C27.422 17.932 27.386 17.832 27.386 17.712C27.386 17.592 27.422 17.492 27.494 17.412C27.574 17.332 27.674 17.292 27.794 17.292C27.914 17.292 28.014 17.332 28.094 17.412C28.174 17.492 28.214 17.592 28.214 17.712C28.214 17.832 28.174 17.932 28.094 18.012C28.014 18.092 27.914 18.132 27.794 18.132Z" fill="black"/>
</svg>
