<svg width="36" height="28" viewBox="0 0 36 28" fill="none" xmlns="http://www.w3.org/2000/svg">
<rect x="1" y="1" width="34" height="26" fill="#D9D9D9"/>
<path d="M2.96875 27.25H33.1562M2.96875 27.25C2.44661 27.25 1.94585 27.0426 1.57663 26.6734C1.20742 26.3042 1 25.8034 1 25.2813M2.96875 27.25H16.0938M2.96875 27.25C1.882 27.25 1 26.368 1 25.2813M33.1562 27.25C34.243 27.25 35.125 26.368 35.125 25.2813M33.1562 27.25H20.0312M1 25.2813V2.96875M1 25.2813V22.6563M1 2.96875C1 1.882 1.882 1 2.96875 1M1 2.96875V5.59375M35.125 25.2813V2.96875M35.125 25.2813V22.6563M35.125 2.96875C35.125 1.882 34.243 1 33.1562 1M35.125 2.96875V5.59375M35.125 2.96875C35.125 2.44661 34.9176 1.94585 34.5484 1.57663C34.1792 1.20742 33.6784 1 33.1562 1M33.1562 1H2.96875M33.1562 1L20.0313 1M2.96875 1L16.0938 1M1 9.53125V12.1563M35.125 9.53125V12.1563M1 16.0938V18.7188M35.125 16.0938V18.7188" stroke="black" stroke-width="1.5" stroke-linecap="round" stroke-linejoin="round"/>
<g clip-path="url(#clip0_25_96)">
<path d="M21.3812 10.2891H19.6668L19.4794 9.6609C19.3614 9.26561 19.0316 9 18.6588 9H17.1833C16.8105 9 16.4807 9.26561 16.3625 9.6609L16.1753 10.2891H14.4609C13.9839 10.2891 13.5959 10.7227 13.5959 11.2559V11.9004C13.5959 12.2594 13.885 12.2227 14.1953 12.2227C16.8587 12.2227 19.2735 12.2227 21.9579 12.2227C22.1172 12.2227 22.2462 12.0785 22.2462 11.9004V11.2559C22.2462 10.7227 21.8582 10.2891 21.3812 10.2891ZM16.7833 10.2891L16.9096 9.86483C16.949 9.73296 17.0591 9.64453 17.1833 9.64453H18.6588C18.783 9.64453 18.8931 9.73296 18.9322 9.86483L19.0587 10.2891H16.7833Z" fill="black"/>
<path d="M14.2431 12.9102L14.7028 19.1207C14.7437 19.622 15.1139 20 15.5642 20H20.2779C20.7282 20 21.0985 19.622 21.1396 19.1179L21.5991 12.9102H14.2431ZM16.4793 18.3887C16.4793 18.8135 15.9027 18.8152 15.9027 18.3887V13.877C15.9027 13.4521 16.4793 13.4504 16.4793 13.877V18.3887ZM18.2094 18.3887C18.2094 18.8135 17.6327 18.8152 17.6327 18.3887V13.877C17.6327 13.4521 18.2094 13.4504 18.2094 13.877V18.3887ZM19.9395 18.3887C19.9395 18.8135 19.3628 18.8152 19.3628 18.3887V13.877C19.3628 13.6988 19.4917 13.5547 19.6511 13.5547C19.8105 13.5547 19.9395 13.6988 19.9395 13.877V18.3887Z" fill="black"/>
</g>
<defs>
<clipPath id="clip0_25_96">
<rect width="9.8421" height="11" fill="white" transform="translate(13 9)"/>
</clipPath>
</defs>
</svg>
