<svg width="36" height="28" viewBox="0 0 36 28" fill="none" xmlns="http://www.w3.org/2000/svg">
<rect x="1" y="1" width="34" height="26" fill="#FFFF00"/>
<path d="M2.96875 27.25H33.1562M2.96875 27.25C2.44661 27.25 1.94585 27.0426 1.57663 26.6734C1.20742 26.3042 1 25.8034 1 25.2813M2.96875 27.25H16.0938M2.96875 27.25C1.882 27.25 1 26.368 1 25.2813M33.1562 27.25C34.243 27.25 35.125 26.368 35.125 25.2813M33.1562 27.25H20.0312M1 25.2813V2.96875M1 25.2813V22.6563M1 2.96875C1 1.882 1.882 1 2.96875 1M1 2.96875V5.59375M35.125 25.2813V2.96875M35.125 25.2813V22.6563M35.125 2.96875C35.125 1.882 34.243 1 33.1562 1M35.125 2.96875V5.59375M35.125 2.96875C35.125 2.44661 34.9176 1.94585 34.5484 1.57663C34.1792 1.20742 33.6784 1 33.1562 1M33.1562 1H2.96875M33.1562 1L20.0313 1M2.96875 1L16.0938 1M1 9.53125V12.1563M35.125 9.53125V12.1563M1 16.0938V18.7188M35.125 16.0938V18.7188" stroke="black" stroke-width="1.5" stroke-linecap="round" stroke-linejoin="round"/>
</svg>
